<?xml version="1.0" encoding="UTF-8" standalone="no"?><svg xmlns="http://www.w3.org/2000/svg" xmlns:xlink="http://www.w3.org/1999/xlink" contentScriptType="application/ecmascript" contentStyleType="text/css" height="250px" preserveAspectRatio="none" style="width:409px;height:250px;" version="1.1" viewBox="0 0 409 250" width="409px" zoomAndPan="magnify"><defs><filter height="300%" id="fplt8jcvy1uz4" width="300%" x="-1" y="-1"><feGaussianBlur result="blurOut" stdDeviation="2.0"/><feColorMatrix in="blurOut" result="blurOut2" type="matrix" values="0 0 0 0 0 0 0 0 0 0 0 0 0 0 0 0 0 0 .4 0"/><feOffset dx="4.0" dy="4.0" in="blurOut2" result="blurOut3"/><feBlend in="SourceGraphic" in2="blurOut3" mode="normal"/></filter></defs><g><!--class State--><rect fill="#FEFECE" filter="url(#fplt8jcvy1uz4)" height="63.0229" id="State" style="stroke: #A80036; stroke-width: 1.5;" width="60" x="198" y="8"/><ellipse cx="213" cy="24" fill="#B4A7E5" rx="11" ry="11" style="stroke: #A80036; stroke-width: 1.0;"/><path d="M209.5938,18.2813 L209.5938,17.875 L215.9063,17.875 L215.9063,18.2813 L213.375,18.2813 Q213.375,18.2813 213.5234,18.4141 Q213.6719,18.5469 213.6719,18.8125 L213.6719,28.2969 Q213.6719,28.5625 213.8906,28.6953 Q214.1094,28.8281 214.1094,28.8281 L215.9063,28.8281 L215.9063,29.2344 L209.5938,29.2344 L209.5938,28.8281 L211.125,28.8281 Q211.4531,28.8281 211.5859,28.6953 Q211.7188,28.5625 211.7188,28.2969 L211.7188,18.8125 Q211.7188,18.5469 211.5859,18.4141 Q211.4531,18.2813 211.125,18.2813 L209.5938,18.2813 Z "/><text fill="#000000" font-family="sans-serif" font-size="12" font-style="italic" lengthAdjust="spacingAndGlyphs" textLength="28" x="227" y="29.5576">State</text><line style="stroke: #A80036; stroke-width: 1.5;" x1="199" x2="257" y1="40" y2="40"/><line style="stroke: #A80036; stroke-width: 1.5;" x1="199" x2="257" y1="48" y2="48"/><text fill="#000000" font-family="sans-serif" font-size="11" lengthAdjust="spacingAndGlyphs" textLength="40" x="204" y="64.606">handle()</text><!--class ConcreateStateA--><rect fill="#FEFECE" filter="url(#fplt8jcvy1uz4)" height="63.0229" id="ConcreateStateA" style="stroke: #A80036; stroke-width: 1.5;" width="124" x="6" y="153.5"/><ellipse cx="21" cy="169.5" fill="#ADD1B2" rx="11" ry="11" style="stroke: #A80036; stroke-width: 1.0;"/><path d="M19.5781,174.8594 Q17.7188,174.8594 16.625,173.4688 Q15.5313,172.0781 15.5313,169.0938 Q15.5313,166.5625 16.6953,164.9063 Q17.8594,163.25 19.8438,163.25 Q21.3125,163.25 21.7813,163.375 Q22.25,163.5781 22.25,163.5781 Q22.25,163.5781 22.25,163.5078 Q22.25,163.4375 22.8594,162.5156 L23.9063,166.1719 L22.5781,166.5781 Q22.1094,165.0313 21.4453,164.3672 Q20.7813,163.7031 19.7188,163.7031 Q19.3281,163.7031 18.5625,165.2344 Q17.7969,166.7656 17.7969,169.0156 Q17.7969,171.4844 18.4609,172.875 Q19.125,174.2656 19.6563,174.2656 Q20.7188,174.2656 21.4766,173.5 Q22.2344,172.7344 22.5781,171.0781 L23.9063,171.6719 Q23.5781,173.0781 22.6797,173.9688 Q21.7813,174.8594 19.5781,174.8594 Z "/><text fill="#000000" font-family="sans-serif" font-size="12" lengthAdjust="spacingAndGlyphs" textLength="92" x="35" y="175.0576">ConcreateStateA</text><line style="stroke: #A80036; stroke-width: 1.5;" x1="7" x2="129" y1="185.5" y2="185.5"/><line style="stroke: #A80036; stroke-width: 1.5;" x1="7" x2="129" y1="193.5" y2="193.5"/><text fill="#000000" font-family="sans-serif" font-size="11" lengthAdjust="spacingAndGlyphs" textLength="40" x="12" y="210.106">handle()</text><!--class ConcreateStateB--><rect fill="#FEFECE" filter="url(#fplt8jcvy1uz4)" height="63.0229" id="ConcreateStateB" style="stroke: #A80036; stroke-width: 1.5;" width="125" x="165.5" y="153.5"/><ellipse cx="180.5" cy="169.5" fill="#ADD1B2" rx="11" ry="11" style="stroke: #A80036; stroke-width: 1.0;"/><path d="M179.0781,174.8594 Q177.2188,174.8594 176.125,173.4688 Q175.0313,172.0781 175.0313,169.0938 Q175.0313,166.5625 176.1953,164.9063 Q177.3594,163.25 179.3438,163.25 Q180.8125,163.25 181.2813,163.375 Q181.75,163.5781 181.75,163.5781 Q181.75,163.5781 181.75,163.5078 Q181.75,163.4375 182.3594,162.5156 L183.4063,166.1719 L182.0781,166.5781 Q181.6094,165.0313 180.9453,164.3672 Q180.2813,163.7031 179.2188,163.7031 Q178.8281,163.7031 178.0625,165.2344 Q177.2969,166.7656 177.2969,169.0156 Q177.2969,171.4844 177.9609,172.875 Q178.625,174.2656 179.1563,174.2656 Q180.2188,174.2656 180.9766,173.5 Q181.7344,172.7344 182.0781,171.0781 L183.4063,171.6719 Q183.0781,173.0781 182.1797,173.9688 Q181.2813,174.8594 179.0781,174.8594 Z "/><text fill="#000000" font-family="sans-serif" font-size="12" lengthAdjust="spacingAndGlyphs" textLength="93" x="194.5" y="175.0576">ConcreateStateB</text><line style="stroke: #A80036; stroke-width: 1.5;" x1="166.5" x2="289.5" y1="185.5" y2="185.5"/><line style="stroke: #A80036; stroke-width: 1.5;" x1="166.5" x2="289.5" y1="193.5" y2="193.5"/><text fill="#000000" font-family="sans-serif" font-size="11" lengthAdjust="spacingAndGlyphs" textLength="40" x="171.5" y="210.106">handle()</text><!--class Context--><rect fill="#FEFECE" filter="url(#fplt8jcvy1uz4)" height="108.0918" id="Context" style="stroke: #A80036; stroke-width: 1.5;" width="73" x="325.5" y="131"/><ellipse cx="340.5" cy="147" fill="#ADD1B2" rx="11" ry="11" style="stroke: #A80036; stroke-width: 1.0;"/><path d="M339.0781,152.3594 Q337.2188,152.3594 336.125,150.9688 Q335.0313,149.5781 335.0313,146.5938 Q335.0313,144.0625 336.1953,142.4063 Q337.3594,140.75 339.3438,140.75 Q340.8125,140.75 341.2813,140.875 Q341.75,141.0781 341.75,141.0781 Q341.75,141.0781 341.75,141.0078 Q341.75,140.9375 342.3594,140.0156 L343.4063,143.6719 L342.0781,144.0781 Q341.6094,142.5313 340.9453,141.8672 Q340.2813,141.2031 339.2188,141.2031 Q338.8281,141.2031 338.0625,142.7344 Q337.2969,144.2656 337.2969,146.5156 Q337.2969,148.9844 337.9609,150.375 Q338.625,151.7656 339.1563,151.7656 Q340.2188,151.7656 340.9766,151 Q341.7344,150.2344 342.0781,148.5781 L343.4063,149.1719 Q343.0781,150.5781 342.1797,151.4688 Q341.2813,152.3594 339.0781,152.3594 Z "/><text fill="#000000" font-family="sans-serif" font-size="12" lengthAdjust="spacingAndGlyphs" textLength="41" x="354.5" y="152.5576">Context</text><line style="stroke: #A80036; stroke-width: 1.5;" x1="326.5" x2="397.5" y1="163" y2="163"/><text fill="#000000" font-family="sans-serif" font-size="11" lengthAdjust="spacingAndGlyphs" textLength="60" x="331.5" y="179.606">State stateA</text><text fill="#000000" font-family="sans-serif" font-size="11" lengthAdjust="spacingAndGlyphs" textLength="59" x="331.5" y="194.6289">State stateB</text><text fill="#000000" font-family="sans-serif" font-size="11" lengthAdjust="spacingAndGlyphs" textLength="52" x="331.5" y="209.6519">State state</text><line style="stroke: #A80036; stroke-width: 1.5;" x1="326.5" x2="397.5" y1="216.0688" y2="216.0688"/><text fill="#000000" font-family="sans-serif" font-size="11" lengthAdjust="spacingAndGlyphs" textLength="45" x="331.5" y="232.6748">request()</text><!--link State to ConcreateStateA--><path d="M182.841,81.002 C157.216,103.985 125.664,132.283 102.1201,153.3985 " fill="none" id="State-ConcreateStateA" style="stroke: #A80036; stroke-width: 1.0; stroke-dasharray: 7.0,7.0;"/><polygon fill="none" points="178.342,75.634,197.905,67.491,187.69,86.056,178.342,75.634" style="stroke: #A80036; stroke-width: 1.0;"/><!--link State to ConcreateStateB--><path d="M228,91.556 C228,112.184 228,135.307 228,153.2666 " fill="none" id="State-ConcreateStateB" style="stroke: #A80036; stroke-width: 1.0; stroke-dasharray: 7.0,7.0;"/><polygon fill="none" points="221,91.284,228,71.284,235,91.284,221,91.284" style="stroke: #A80036; stroke-width: 1.0;"/><!--link State to Context--><path d="M260.343,75.136 C279.959,96.142 305.043,123.005 325.386,144.7902 " fill="none" id="State-Context" style="stroke: #A80036; stroke-width: 1.0;"/><polygon fill="#A80036" points="256.746,71.284,259.9656,80.5917,260.1588,74.9382,265.8123,75.1313,256.746,71.284" style="stroke: #A80036; stroke-width: 1.0;"/><!--
@startuml

interface State{
    handle()
}

class ConcreateStateA{
    handle()
}

class ConcreateStateB{
    handle()
}

State <|.. ConcreateStateA
State <|.. ConcreateStateB

class Context{
    State stateA
    State stateB
    State state

    request()
}

State <- - Context


@enduml

PlantUML version 1.2018.12(Sun Oct 21 18:15:15 CST 2018)
(GPL source distribution)
Java Runtime: Java(TM) SE Runtime Environment
JVM: Java HotSpot(TM) 64-Bit Server VM
Java Version: 1.8.0_151-b12
Operating System: Windows 10
OS Version: 10.0
Default Encoding: GBK
Language: zh
Country: CN
--></g></svg>