<?xml version="1.0" encoding="UTF-8" standalone="no"?><svg xmlns="http://www.w3.org/2000/svg" xmlns:xlink="http://www.w3.org/1999/xlink" contentScriptType="application/ecmascript" contentStyleType="text/css" height="433px" preserveAspectRatio="none" style="width:846px;height:433px;" version="1.1" viewBox="0 0 846 433" width="846px" zoomAndPan="magnify"><defs><filter height="300%" id="fx1pmv0vtdljz" width="300%" x="-1" y="-1"><feGaussianBlur result="blurOut" stdDeviation="2.0"/><feColorMatrix in="blurOut" result="blurOut2" type="matrix" values="0 0 0 0 0 0 0 0 0 0 0 0 0 0 0 0 0 0 .4 0"/><feOffset dx="4.0" dy="4.0" in="blurOut2" result="blurOut3"/><feBlend in="SourceGraphic" in2="blurOut3" mode="normal"/></filter></defs><g><!--class FlyBehavior--><rect fill="#FEFECE" filter="url(#fx1pmv0vtdljz)" height="63.0229" id="FlyBehavior" style="stroke: #A80036; stroke-width: 1.5;" width="97" x="145.5" y="8"/><ellipse cx="160.5" cy="24" fill="#B4A7E5" rx="11" ry="11" style="stroke: #A80036; stroke-width: 1.0;"/><path d="M157.375,20 L157.375,18.3125 L163.3125,18.3125 L163.3125,20 L161.4375,20 Q161.2813,20 161.2344,20.0313 Q161.1875,20.0625 161.1875,20.1094 L161.1875,28.2031 Q161.1875,28.25 161.2344,28.2813 Q161.2813,28.3125 161.4375,28.3125 L163.3125,28.3125 L163.3125,30 L157.375,30 L157.375,28.3125 L159.25,28.3125 Q159.4531,28.3125 159.4766,28.2969 Q159.5,28.2813 159.5,28.2031 L159.5,20.1094 Q159.5,20.0313 159.4766,20.0156 Q159.4531,20 159.25,20 L157.375,20 Z "/><text fill="#000000" font-family="sans-serif" font-size="12" font-style="italic" lengthAdjust="spacingAndGlyphs" textLength="65" x="174.5" y="29.5576">FlyBehavior</text><line style="stroke: #A80036; stroke-width: 1.5;" x1="146.5" x2="241.5" y1="40" y2="40"/><line style="stroke: #A80036; stroke-width: 1.5;" x1="146.5" x2="241.5" y1="48" y2="48"/><text fill="#000000" font-family="sans-serif" font-size="11" lengthAdjust="spacingAndGlyphs" textLength="20" x="151.5" y="64.606">fly()</text><!--class QuackBehavior--><rect fill="#FEFECE" filter="url(#fx1pmv0vtdljz)" height="63.0229" id="QuackBehavior" style="stroke: #A80036; stroke-width: 1.5;" width="117" x="522.5" y="8"/><ellipse cx="537.5" cy="24" fill="#B4A7E5" rx="11" ry="11" style="stroke: #A80036; stroke-width: 1.0;"/><path d="M534.375,20 L534.375,18.3125 L540.3125,18.3125 L540.3125,20 L538.4375,20 Q538.2813,20 538.2344,20.0313 Q538.1875,20.0625 538.1875,20.1094 L538.1875,28.2031 Q538.1875,28.25 538.2344,28.2813 Q538.2813,28.3125 538.4375,28.3125 L540.3125,28.3125 L540.3125,30 L534.375,30 L534.375,28.3125 L536.25,28.3125 Q536.4531,28.3125 536.4766,28.2969 Q536.5,28.2813 536.5,28.2031 L536.5,20.1094 Q536.5,20.0313 536.4766,20.0156 Q536.4531,20 536.25,20 L534.375,20 Z "/><text fill="#000000" font-family="sans-serif" font-size="12" font-style="italic" lengthAdjust="spacingAndGlyphs" textLength="85" x="551.5" y="29.5576">QuackBehavior</text><line style="stroke: #A80036; stroke-width: 1.5;" x1="523.5" x2="638.5" y1="40" y2="40"/><line style="stroke: #A80036; stroke-width: 1.5;" x1="523.5" x2="638.5" y1="48" y2="48"/><text fill="#000000" font-family="sans-serif" font-size="11" lengthAdjust="spacingAndGlyphs" textLength="37" x="528.5" y="64.606">quack()</text><!--class Duck--><rect fill="#FEFECE" filter="url(#fx1pmv0vtdljz)" height="168.1836" id="Duck" style="stroke: #A80036; stroke-width: 1.5;" width="161" x="276.5" y="131"/><ellipse cx="338.25" cy="147" fill="#A9DCDF" rx="11" ry="11" style="stroke: #A80036; stroke-width: 1.0;"/><path d="M339.3281,148 L336.5156,148 L335.7031,149.6094 Q335.6563,149.7656 335.6563,149.9063 Q335.6563,150.0938 335.7031,150.2031 Q335.75,150.3125 335.9688,150.3125 L336.5156,150.3125 L336.5156,152 L333.25,152 L333.25,150.3125 L333.8125,150.3125 Q334.0313,150.3125 334.1484,150.25 Q334.2656,150.1875 334.3125,150 L337.4063,140.3125 L338.7813,140.3125 L341.8125,149.8906 Q341.9063,150.125 342.0469,150.2188 Q342.1875,150.3125 342.375,150.3125 L342.9375,150.3125 L342.9375,152 L339.2813,152 L339.2813,150.3125 L339.8906,150.3125 Q340.0625,150.3125 340.0703,150.2969 Q340.0781,150.2813 340.0781,150.2188 Q340.0781,150.0469 340.0469,149.9531 L339.3281,148 Z M334.1094,151 L334.1094,151 Z M334.7813,151 L334.7813,151 Z M339.5,151 L339.5,151 Z M340.625,151 L340.625,151 Z M337.8281,142.4063 L337.9063,142.4063 L337.0469,146.3125 L339,146.3125 L337.8281,142.4063 Z "/><text fill="#000000" font-family="sans-serif" font-size="12" font-style="italic" lengthAdjust="spacingAndGlyphs" textLength="29" x="358.75" y="152.5576">Duck</text><line style="stroke: #A80036; stroke-width: 1.5;" x1="277.5" x2="436.5" y1="163" y2="163"/><text fill="#000000" font-family="sans-serif" font-size="11" lengthAdjust="spacingAndGlyphs" textLength="115" x="282.5" y="179.606">FlyBehavior flyBehavior</text><text fill="#000000" font-family="sans-serif" font-size="11" lengthAdjust="spacingAndGlyphs" textLength="149" x="282.5" y="194.6289">QuackBehavior quackBehavior</text><line style="stroke: #A80036; stroke-width: 1.5;" x1="277.5" x2="436.5" y1="201.0459" y2="201.0459"/><text fill="#000000" font-family="sans-serif" font-size="11" lengthAdjust="spacingAndGlyphs" textLength="34" x="282.5" y="217.6519">swim()</text><text fill="#000000" font-family="sans-serif" font-size="11" lengthAdjust="spacingAndGlyphs" textLength="42" x="282.5" y="232.6748">display()</text><text fill="#000000" font-family="sans-serif" font-size="11" lengthAdjust="spacingAndGlyphs" textLength="77" x="282.5" y="247.6978">performQuack()</text><text fill="#000000" font-family="sans-serif" font-size="11" lengthAdjust="spacingAndGlyphs" textLength="60" x="282.5" y="262.7207">performFly()</text><text fill="#000000" font-family="sans-serif" font-size="11" lengthAdjust="spacingAndGlyphs" textLength="80" x="282.5" y="277.7437">setFlyBehavior()</text><text fill="#000000" font-family="sans-serif" font-size="11" lengthAdjust="spacingAndGlyphs" textLength="97" x="282.5" y="292.7666">setQuackBehavior()</text><!--class MallardDuck--><rect fill="#FEFECE" filter="url(#fx1pmv0vtdljz)" height="63.0229" id="MallardDuck" style="stroke: #A80036; stroke-width: 1.5;" width="100" x="95" y="359"/><ellipse cx="110" cy="375" fill="#ADD1B2" rx="11" ry="11" style="stroke: #A80036; stroke-width: 1.0;"/><path d="M109.6875,381 Q107.75,381 106.625,379.5703 Q105.5,378.1406 105.5,375.1875 Q105.5,372.6875 106.6875,371 Q107.875,369.3125 109.9375,369.3125 Q110.3906,369.3125 110.8281,369.3125 Q111.2656,369.3125 111.5781,369.3125 Q111.8281,369.3125 111.9922,369.3125 Q112.1563,369.3125 112.5625,369.3125 L113.2656,373 L112.2031,373 Q111.7656,371.9063 111.1953,371.4531 Q110.625,371 109.7031,371 Q108.5469,371 107.8672,372.1797 Q107.1875,373.3594 107.1875,375.1875 Q107.1875,377.2031 107.7109,378.2578 Q108.2344,379.3125 109.6406,379.3125 Q110.5625,379.3125 111.2109,378.7422 Q111.8594,378.1719 112.2031,376.7813 L113.2344,377.2969 Q112.8438,379.0469 111.9063,380.0234 Q110.9688,381 109.6875,381 Z "/><text fill="#000000" font-family="sans-serif" font-size="12" lengthAdjust="spacingAndGlyphs" textLength="68" x="124" y="380.5576">MallardDuck</text><line style="stroke: #A80036; stroke-width: 1.5;" x1="96" x2="194" y1="391" y2="391"/><line style="stroke: #A80036; stroke-width: 1.5;" x1="96" x2="194" y1="399" y2="399"/><text fill="#000000" font-family="sans-serif" font-size="11" lengthAdjust="spacingAndGlyphs" textLength="87" x="101" y="415.606">display() // 绿头鸭</text><!--class RedheadDuck--><rect fill="#FEFECE" filter="url(#fx1pmv0vtdljz)" height="63.0229" id="RedheadDuck" style="stroke: #A80036; stroke-width: 1.5;" width="111" x="230.5" y="359"/><ellipse cx="245.5" cy="375" fill="#ADD1B2" rx="11" ry="11" style="stroke: #A80036; stroke-width: 1.0;"/><path d="M245.1875,381 Q243.25,381 242.125,379.5703 Q241,378.1406 241,375.1875 Q241,372.6875 242.1875,371 Q243.375,369.3125 245.4375,369.3125 Q245.8906,369.3125 246.3281,369.3125 Q246.7656,369.3125 247.0781,369.3125 Q247.3281,369.3125 247.4922,369.3125 Q247.6563,369.3125 248.0625,369.3125 L248.7656,373 L247.7031,373 Q247.2656,371.9063 246.6953,371.4531 Q246.125,371 245.2031,371 Q244.0469,371 243.3672,372.1797 Q242.6875,373.3594 242.6875,375.1875 Q242.6875,377.2031 243.2109,378.2578 Q243.7344,379.3125 245.1406,379.3125 Q246.0625,379.3125 246.7109,378.7422 Q247.3594,378.1719 247.7031,376.7813 L248.7344,377.2969 Q248.3438,379.0469 247.4063,380.0234 Q246.4688,381 245.1875,381 Z "/><text fill="#000000" font-family="sans-serif" font-size="12" lengthAdjust="spacingAndGlyphs" textLength="79" x="259.5" y="380.5576">RedheadDuck</text><line style="stroke: #A80036; stroke-width: 1.5;" x1="231.5" x2="340.5" y1="391" y2="391"/><line style="stroke: #A80036; stroke-width: 1.5;" x1="231.5" x2="340.5" y1="399" y2="399"/><text fill="#000000" font-family="sans-serif" font-size="11" lengthAdjust="spacingAndGlyphs" textLength="87" x="236.5" y="415.606">display() // 红头鸭</text><!--class RubberDuck--><rect fill="#FEFECE" filter="url(#fx1pmv0vtdljz)" height="63.0229" id="RubberDuck" style="stroke: #A80036; stroke-width: 1.5;" width="101" x="376.5" y="359"/><ellipse cx="391.5" cy="375" fill="#ADD1B2" rx="11" ry="11" style="stroke: #A80036; stroke-width: 1.0;"/><path d="M391.1875,381 Q389.25,381 388.125,379.5703 Q387,378.1406 387,375.1875 Q387,372.6875 388.1875,371 Q389.375,369.3125 391.4375,369.3125 Q391.8906,369.3125 392.3281,369.3125 Q392.7656,369.3125 393.0781,369.3125 Q393.3281,369.3125 393.4922,369.3125 Q393.6563,369.3125 394.0625,369.3125 L394.7656,373 L393.7031,373 Q393.2656,371.9063 392.6953,371.4531 Q392.125,371 391.2031,371 Q390.0469,371 389.3672,372.1797 Q388.6875,373.3594 388.6875,375.1875 Q388.6875,377.2031 389.2109,378.2578 Q389.7344,379.3125 391.1406,379.3125 Q392.0625,379.3125 392.7109,378.7422 Q393.3594,378.1719 393.7031,376.7813 L394.7344,377.2969 Q394.3438,379.0469 393.4063,380.0234 Q392.4688,381 391.1875,381 Z "/><text fill="#000000" font-family="sans-serif" font-size="12" lengthAdjust="spacingAndGlyphs" textLength="69" x="405.5" y="380.5576">RubberDuck</text><line style="stroke: #A80036; stroke-width: 1.5;" x1="377.5" x2="476.5" y1="391" y2="391"/><line style="stroke: #A80036; stroke-width: 1.5;" x1="377.5" x2="476.5" y1="399" y2="399"/><text fill="#000000" font-family="sans-serif" font-size="11" lengthAdjust="spacingAndGlyphs" textLength="87" x="382.5" y="415.606">display() // 橡皮鸭</text><!--class DecoyDuck--><rect fill="#FEFECE" filter="url(#fx1pmv0vtdljz)" height="63.0229" id="DecoyDuck" style="stroke: #A80036; stroke-width: 1.5;" width="99" x="512.5" y="359"/><ellipse cx="529.75" cy="375" fill="#ADD1B2" rx="11" ry="11" style="stroke: #A80036; stroke-width: 1.0;"/><path d="M529.4375,381 Q527.5,381 526.375,379.5703 Q525.25,378.1406 525.25,375.1875 Q525.25,372.6875 526.4375,371 Q527.625,369.3125 529.6875,369.3125 Q530.1406,369.3125 530.5781,369.3125 Q531.0156,369.3125 531.3281,369.3125 Q531.5781,369.3125 531.7422,369.3125 Q531.9063,369.3125 532.3125,369.3125 L533.0156,373 L531.9531,373 Q531.5156,371.9063 530.9453,371.4531 Q530.375,371 529.4531,371 Q528.2969,371 527.6172,372.1797 Q526.9375,373.3594 526.9375,375.1875 Q526.9375,377.2031 527.4609,378.2578 Q527.9844,379.3125 529.3906,379.3125 Q530.3125,379.3125 530.9609,378.7422 Q531.6094,378.1719 531.9531,376.7813 L532.9844,377.2969 Q532.5938,379.0469 531.6563,380.0234 Q530.7188,381 529.4375,381 Z "/><text fill="#000000" font-family="sans-serif" font-size="12" lengthAdjust="spacingAndGlyphs" textLength="62" x="544.25" y="380.5576">DecoyDuck</text><line style="stroke: #A80036; stroke-width: 1.5;" x1="513.5" x2="610.5" y1="391" y2="391"/><line style="stroke: #A80036; stroke-width: 1.5;" x1="513.5" x2="610.5" y1="399" y2="399"/><text fill="#000000" font-family="sans-serif" font-size="11" lengthAdjust="spacingAndGlyphs" textLength="87" x="518.5" y="415.606">display() // 诱饵鸭</text><!--class FlyWithWings--><rect fill="#FEFECE" filter="url(#fx1pmv0vtdljz)" height="63.0229" id="FlyWithWings" style="stroke: #A80036; stroke-width: 1.5;" width="106" x="6" y="183.5"/><ellipse cx="21" cy="199.5" fill="#ADD1B2" rx="11" ry="11" style="stroke: #A80036; stroke-width: 1.0;"/><path d="M20.6875,205.5 Q18.75,205.5 17.625,204.0703 Q16.5,202.6406 16.5,199.6875 Q16.5,197.1875 17.6875,195.5 Q18.875,193.8125 20.9375,193.8125 Q21.3906,193.8125 21.8281,193.8125 Q22.2656,193.8125 22.5781,193.8125 Q22.8281,193.8125 22.9922,193.8125 Q23.1563,193.8125 23.5625,193.8125 L24.2656,197.5 L23.2031,197.5 Q22.7656,196.4063 22.1953,195.9531 Q21.625,195.5 20.7031,195.5 Q19.5469,195.5 18.8672,196.6797 Q18.1875,197.8594 18.1875,199.6875 Q18.1875,201.7031 18.7109,202.7578 Q19.2344,203.8125 20.6406,203.8125 Q21.5625,203.8125 22.2109,203.2422 Q22.8594,202.6719 23.2031,201.2813 L24.2344,201.7969 Q23.8438,203.5469 22.9063,204.5234 Q21.9688,205.5 20.6875,205.5 Z "/><text fill="#000000" font-family="sans-serif" font-size="12" lengthAdjust="spacingAndGlyphs" textLength="74" x="35" y="205.0576">FlyWithWings</text><line style="stroke: #A80036; stroke-width: 1.5;" x1="7" x2="111" y1="215.5" y2="215.5"/><line style="stroke: #A80036; stroke-width: 1.5;" x1="7" x2="111" y1="223.5" y2="223.5"/><text fill="#000000" font-family="sans-serif" font-size="11" lengthAdjust="spacingAndGlyphs" textLength="87" x="12" y="240.106">fly() // 用翅膀飞行</text><!--class FlyNoWay--><rect fill="#FEFECE" filter="url(#fx1pmv0vtdljz)" height="63.0229" id="FlyNoWay" style="stroke: #A80036; stroke-width: 1.5;" width="94" x="147" y="183.5"/><ellipse cx="165.6" cy="199.5" fill="#ADD1B2" rx="11" ry="11" style="stroke: #A80036; stroke-width: 1.0;"/><path d="M165.2875,205.5 Q163.35,205.5 162.225,204.0703 Q161.1,202.6406 161.1,199.6875 Q161.1,197.1875 162.2875,195.5 Q163.475,193.8125 165.5375,193.8125 Q165.9906,193.8125 166.4281,193.8125 Q166.8656,193.8125 167.1781,193.8125 Q167.4281,193.8125 167.5922,193.8125 Q167.7563,193.8125 168.1625,193.8125 L168.8656,197.5 L167.8031,197.5 Q167.3656,196.4063 166.7953,195.9531 Q166.225,195.5 165.3031,195.5 Q164.1469,195.5 163.4672,196.6797 Q162.7875,197.8594 162.7875,199.6875 Q162.7875,201.7031 163.3109,202.7578 Q163.8344,203.8125 165.2406,203.8125 Q166.1625,203.8125 166.8109,203.2422 Q167.4594,202.6719 167.8031,201.2813 L168.8344,201.7969 Q168.4438,203.5469 167.5063,204.5234 Q166.5688,205.5 165.2875,205.5 Z "/><text fill="#000000" font-family="sans-serif" font-size="12" lengthAdjust="spacingAndGlyphs" textLength="54" x="180.4" y="205.0576">FlyNoWay</text><line style="stroke: #A80036; stroke-width: 1.5;" x1="148" x2="240" y1="215.5" y2="215.5"/><line style="stroke: #A80036; stroke-width: 1.5;" x1="148" x2="240" y1="223.5" y2="223.5"/><text fill="#000000" font-family="sans-serif" font-size="11" lengthAdjust="spacingAndGlyphs" textLength="82" x="153" y="240.106">fly() // do nothing</text><!--class Quack--><rect fill="#FEFECE" filter="url(#fx1pmv0vtdljz)" height="63.0229" id="Quack" style="stroke: #A80036; stroke-width: 1.5;" width="91" x="472.5" y="183.5"/><ellipse cx="498.3" cy="199.5" fill="#ADD1B2" rx="11" ry="11" style="stroke: #A80036; stroke-width: 1.0;"/><path d="M497.9875,205.5 Q496.05,205.5 494.925,204.0703 Q493.8,202.6406 493.8,199.6875 Q493.8,197.1875 494.9875,195.5 Q496.175,193.8125 498.2375,193.8125 Q498.6906,193.8125 499.1281,193.8125 Q499.5656,193.8125 499.8781,193.8125 Q500.1281,193.8125 500.2922,193.8125 Q500.4563,193.8125 500.8625,193.8125 L501.5656,197.5 L500.5031,197.5 Q500.0656,196.4063 499.4953,195.9531 Q498.925,195.5 498.0031,195.5 Q496.8469,195.5 496.1672,196.6797 Q495.4875,197.8594 495.4875,199.6875 Q495.4875,201.7031 496.0109,202.7578 Q496.5344,203.8125 497.9406,203.8125 Q498.8625,203.8125 499.5109,203.2422 Q500.1594,202.6719 500.5031,201.2813 L501.5344,201.7969 Q501.1438,203.5469 500.2063,204.5234 Q499.2688,205.5 497.9875,205.5 Z "/><text fill="#000000" font-family="sans-serif" font-size="12" lengthAdjust="spacingAndGlyphs" textLength="35" x="514.7" y="205.0576">Quack</text><line style="stroke: #A80036; stroke-width: 1.5;" x1="473.5" x2="562.5" y1="215.5" y2="215.5"/><line style="stroke: #A80036; stroke-width: 1.5;" x1="473.5" x2="562.5" y1="223.5" y2="223.5"/><text fill="#000000" font-family="sans-serif" font-size="11" lengthAdjust="spacingAndGlyphs" textLength="79" x="478.5" y="240.106">quack() //呱呱叫</text><!--class Squeak--><rect fill="#FEFECE" filter="url(#fx1pmv0vtdljz)" height="63.0229" id="Squeak" style="stroke: #A80036; stroke-width: 1.5;" width="91" x="598.5" y="183.5"/><ellipse cx="621.15" cy="199.5" fill="#ADD1B2" rx="11" ry="11" style="stroke: #A80036; stroke-width: 1.0;"/><path d="M620.8375,205.5 Q618.9,205.5 617.775,204.0703 Q616.65,202.6406 616.65,199.6875 Q616.65,197.1875 617.8375,195.5 Q619.025,193.8125 621.0875,193.8125 Q621.5406,193.8125 621.9781,193.8125 Q622.4156,193.8125 622.7281,193.8125 Q622.9781,193.8125 623.1422,193.8125 Q623.3063,193.8125 623.7125,193.8125 L624.4156,197.5 L623.3531,197.5 Q622.9156,196.4063 622.3453,195.9531 Q621.775,195.5 620.8531,195.5 Q619.6969,195.5 619.0172,196.6797 Q618.3375,197.8594 618.3375,199.6875 Q618.3375,201.7031 618.8609,202.7578 Q619.3844,203.8125 620.7906,203.8125 Q621.7125,203.8125 622.3609,203.2422 Q623.0094,202.6719 623.3531,201.2813 L624.3844,201.7969 Q623.9938,203.5469 623.0563,204.5234 Q622.1188,205.5 620.8375,205.5 Z "/><text fill="#000000" font-family="sans-serif" font-size="12" lengthAdjust="spacingAndGlyphs" textLength="42" x="636.85" y="205.0576">Squeak</text><line style="stroke: #A80036; stroke-width: 1.5;" x1="599.5" x2="688.5" y1="215.5" y2="215.5"/><line style="stroke: #A80036; stroke-width: 1.5;" x1="599.5" x2="688.5" y1="223.5" y2="223.5"/><text fill="#000000" font-family="sans-serif" font-size="11" lengthAdjust="spacingAndGlyphs" textLength="79" x="604.5" y="240.106">quack() //吱吱叫</text><!--class MuteQuack--><rect fill="#FEFECE" filter="url(#fx1pmv0vtdljz)" height="63.0229" id="MuteQuack" style="stroke: #A80036; stroke-width: 1.5;" width="111" x="724.5" y="183.5"/><ellipse cx="747.6" cy="199.5" fill="#ADD1B2" rx="11" ry="11" style="stroke: #A80036; stroke-width: 1.0;"/><path d="M747.2875,205.5 Q745.35,205.5 744.225,204.0703 Q743.1,202.6406 743.1,199.6875 Q743.1,197.1875 744.2875,195.5 Q745.475,193.8125 747.5375,193.8125 Q747.9906,193.8125 748.4281,193.8125 Q748.8656,193.8125 749.1781,193.8125 Q749.4281,193.8125 749.5922,193.8125 Q749.7563,193.8125 750.1625,193.8125 L750.8656,197.5 L749.8031,197.5 Q749.3656,196.4063 748.7953,195.9531 Q748.225,195.5 747.3031,195.5 Q746.1469,195.5 745.4672,196.6797 Q744.7875,197.8594 744.7875,199.6875 Q744.7875,201.7031 745.3109,202.7578 Q745.8344,203.8125 747.2406,203.8125 Q748.1625,203.8125 748.8109,203.2422 Q749.4594,202.6719 749.8031,201.2813 L750.8344,201.7969 Q750.4438,203.5469 749.5063,204.5234 Q748.5688,205.5 747.2875,205.5 Z "/><text fill="#000000" font-family="sans-serif" font-size="12" lengthAdjust="spacingAndGlyphs" textLength="61" x="763.4" y="205.0576">MuteQuack</text><line style="stroke: #A80036; stroke-width: 1.5;" x1="725.5" x2="834.5" y1="215.5" y2="215.5"/><line style="stroke: #A80036; stroke-width: 1.5;" x1="725.5" x2="834.5" y1="223.5" y2="223.5"/><text fill="#000000" font-family="sans-serif" font-size="11" lengthAdjust="spacingAndGlyphs" textLength="99" x="730.5" y="240.106">quack() // do nothing</text><!--link FlyBehavior to FlyWithWings--><path d="M157.754,87.083 C133.979,117.638 103.5664,156.724 82.813,183.396 " fill="none" id="FlyBehavior-FlyWithWings" style="stroke: #A80036; stroke-width: 1.0; stroke-dasharray: 7.0,7.0;"/><polygon fill="none" points="152.369,82.605,170.175,71.119,163.418,91.202,152.369,82.605" style="stroke: #A80036; stroke-width: 1.0;"/><!--link FlyBehavior to FlyNoWay--><path d="M194,91.379 C194,121.23 194,157.959 194,183.396 " fill="none" id="FlyBehavior-FlyNoWay" style="stroke: #A80036; stroke-width: 1.0; stroke-dasharray: 7.0,7.0;"/><polygon fill="none" points="187,91.119,194,71.119,201,91.119,187,91.119" style="stroke: #A80036; stroke-width: 1.0;"/><!--link QuackBehavior to Quack--><path d="M562.997,90.08 C552.075,120.158 538.484,157.588 529.113,183.396 " fill="none" id="QuackBehavior-Quack" style="stroke: #A80036; stroke-width: 1.0; stroke-dasharray: 7.0,7.0;"/><polygon fill="none" points="556.476,87.529,569.882,71.119,569.635,92.307,556.476,87.529" style="stroke: #A80036; stroke-width: 1.0;"/><!--link QuackBehavior to Squeak--><path d="M599.003,90.08 C609.925,120.158 623.516,157.588 632.887,183.396 " fill="none" id="QuackBehavior-Squeak" style="stroke: #A80036; stroke-width: 1.0; stroke-dasharray: 7.0,7.0;"/><polygon fill="none" points="592.365,92.307,592.118,71.119,605.524,87.529,592.365,92.307" style="stroke: #A80036; stroke-width: 1.0;"/><!--link QuackBehavior to MuteQuack--><path d="M645.628,82.691 C666.018,97.095 688.133,113.905 707,131 C724.634,146.977 742.312,166.95 755.855,183.299 " fill="none" id="QuackBehavior-MuteQuack" style="stroke: #A80036; stroke-width: 1.0; stroke-dasharray: 7.0,7.0;"/><polygon fill="none" points="641.484,88.336,629.015,71.203,649.446,76.821,641.484,88.336" style="stroke: #A80036; stroke-width: 1.0;"/><!--link Duck to MallardDuck--><path d="M260.818,296.688 C259.875,297.463 258.935,298.234 258,299 C233.408,319.153 205.528,341.4865 183.614,358.9253 " fill="none" id="Duck-MallardDuck" style="stroke: #A80036; stroke-width: 1.0;"/><polygon fill="none" points="256.47,291.2,276.351,283.869,265.382,301.998,256.47,291.2" style="stroke: #A80036; stroke-width: 1.0;"/><!--link Duck to RedheadDuck--><path d="M315.245,318.034 C309.22,332.7578 303.443,346.8749 298.638,358.6161 " fill="none" id="Duck-RedheadDuck" style="stroke: #A80036; stroke-width: 1.0;"/><polygon fill="none" points="308.902,315.052,322.956,299.193,321.859,320.354,308.902,315.052" style="stroke: #A80036; stroke-width: 1.0;"/><!--link Duck to RubberDuck--><path d="M398.166,318.034 C404.107,332.7578 409.803,346.8749 414.54,358.6161 " fill="none" id="Duck-RubberDuck" style="stroke: #A80036; stroke-width: 1.0;"/><polygon fill="none" points="391.556,320.359,390.565,299.193,404.54,315.121,391.556,320.359" style="stroke: #A80036; stroke-width: 1.0;"/><!--link Duck to DecoyDuck--><path d="M453.151,297.435 C453.769,297.958 454.386,298.48 455,299 C478.585,318.962 505.103,341.3907 525.84,358.926 " fill="none" id="Duck-DecoyDuck" style="stroke: #A80036; stroke-width: 1.0;"/><polygon fill="none" points="448.492,302.662,437.75,284.397,457.537,291.977,448.492,302.662" style="stroke: #A80036; stroke-width: 1.0;"/><!--link FlyBehavior to Duck--><path d="M226.532,75.128 C241.657,91.227 260.358,111.133 278.831,130.795 " fill="none" id="FlyBehavior-Duck" style="stroke: #A80036; stroke-width: 1.0;"/><polygon fill="#A80036" points="222.766,71.119,226.0119,80.4176,226.1891,74.7635,231.8432,74.9407,222.766,71.119" style="stroke: #A80036; stroke-width: 1.0;"/><!--link QuackBehavior to Duck--><path d="M532.276,74.132 C508.622,90.803 479.983,111.498 455,131 C449.288,135.459 443.447,140.123 437.601,144.869 " fill="none" id="QuackBehavior-Duck" style="stroke: #A80036; stroke-width: 1.0;"/><polygon fill="#A80036" points="536.633,71.067,526.9703,72.973,532.5433,73.9435,531.5727,79.5165,536.633,71.067" style="stroke: #A80036; stroke-width: 1.0;"/><!--
@startuml

interface FlyBehavior {
    fly()
}
interface QuackBehavior{
    quack()
}

abstract class Duck{
    FlyBehavior flyBehavior
    QuackBehavior quackBehavior

    swim()
    display()
    performQuack()
    performFly()
    setFlyBehavior()
    setQuackBehavior()
}

class MallardDuck{
    display() // 绿头鸭
}

class RedheadDuck{
    display() // 红头鸭
}

class RubberDuck{
    display() // 橡皮鸭
}

class DecoyDuck{
    display() // 诱饵鸭
}

class FlyWithWings{
    fly() // 用翅膀飞行
}

class FlyNoWay{
    fly() // do nothing
}

class Quack{
    quack() //呱呱叫
}

class Squeak{
    quack() //吱吱叫
}

class MuteQuack{
    quack() // do nothing
}

FlyBehavior <|.. FlyWithWings
FlyBehavior <|.. FlyNoWay

QuackBehavior <|.. Quack
QuackBehavior <|.. Squeak
QuackBehavior <|.. MuteQuack

Duck <|- - MallardDuck
Duck <|- - RedheadDuck
Duck <|- - RubberDuck
Duck <|- - DecoyDuck

FlyBehavior   <- - Duck
QuackBehavior <- - Duck


@enduml

PlantUML version 1.2018.11(Sun Sep 23 00:43:53 CST 2018)
(GPL source distribution)
Java Runtime: OpenJDK Runtime Environment
JVM: OpenJDK 64-Bit Server VM
Java Version: 1.8.0_152-release-1343-b28
Operating System: Windows 10
OS Version: 10.0
Default Encoding: GBK
Language: zh
Country: CN
--></g></svg>